<?xml version="1.0" encoding="utf-8"?>
<svg viewBox="0 151.357 801.126 205.601" xmlns="http://www.w3.org/2000/svg">
  <g transform="matrix(1.3333332538604736, 0, 0, -1.3333332538604736, 0, 1056)" id="g10">
    <g transform="matrix(7.7490387,0,0,1.2879028,15.496811,557.54565)" id="g12">
      <g transform="translate(5.6705,1.0266)" id="g14">
        <path id="path16" style="fill:#da251d;fill-opacity:1;fill-rule:evenodd;stroke:none" d="m 0,0 -0.225,1.127 -0.25,1.152 -0.249,1.126 -0.275,0.902 -0.175,0.926 -0.2,0.902 -0.225,0.901 -0.2,0.701 -0.074,0.902 -0.1,1.126 -0.025,0.476 -0.05,0.676 v 0.45 l 0.05,0.226 h 0.125 l 0.149,-0.226 0.125,-0.676 0.15,-0.45 0.275,-1.152 0.275,-0.901 0.05,-0.676 0.05,-0.476 0.125,-0.225 0.125,-0.226 h 0.274 L -0.1,6.811 -0.025,7.512 0,8.864 l 0.05,5.909 0.025,5.909 0.05,2.955 0.1,2.954 0.1,2.73 0.15,2.729 0.05,1.828 0.075,1.828 0.1,1.803 0.124,1.827 0.1,2.054 0.1,1.828 0.025,1.802 v 1.828 H 1.024 L 0.999,47.074 0.924,46.398 0.824,45.947 0.525,45.02 0.25,43.894 -0.025,42.516 -0.35,41.615 l -0.224,-1.377 -0.275,-1.352 -0.325,-1.127 -0.325,-1.152 -0.05,-0.901 -0.125,-0.451 0.125,-0.476 0.3,-0.676 0.075,-0.676 0.025,-0.676 0.05,-0.701 -0.05,-0.676 -0.05,-1.127 -0.15,-0.926 -0.35,-2.028 -0.299,-2.054 -0.15,-0.225 -0.075,-0.451 -0.075,-0.701 v -0.901 l 0.15,-0.676 0.075,-0.226 v -0.926 l -0.05,-0.902 -0.05,-0.901 -0.125,-0.901 -0.2,-0.476 -0.175,-0.451 -0.075,-0.451 -0.025,-0.45 v -0.676 l 0.025,-0.927 0.1,0.226 0.125,0.701 0.05,0.676 0.075,0.676 0.175,0.225 h 0.175 l 0.075,-0.901 v -1.152 -1.127 l -0.075,-1.127 -0.175,-0.701 -0.175,-0.901 -0.025,-0.451 -0.05,-0.676 -0.025,-0.476 0.025,-0.901 0.125,-0.45 0.05,-0.451 0.05,-0.451 V 7.036 6.585 5.909 L -2.323,5.233 -2.348,4.783 -2.523,3.631 -2.748,2.955 -2.848,2.729 h -0.1 -0.149 l -0.1,0.226 -0.1,2.278 -0.075,2.028 -0.075,2.053 -0.025,2.279 0.125,0.901 0.075,1.152 0.05,0.676 v 0.676 l -0.075,0.451 -0.075,0.476 h -0.1 l -0.075,0.225 0.05,0.901 0.05,0.902 0.075,0.701 0.1,0.676 0.249,1.127 0.25,1.377 -0.05,0.676 v 1.352 l 0.175,1.152 0.15,0.676 0.1,1.152 0.1,1.577 0.125,0.676 0.1,0.927 0.075,0.901 v 1.127 h -0.05 -0.025 l -0.1,-0.676 -0.075,-0.676 -0.175,-0.451 -0.15,-0.676 -0.1,-0.701 -0.1,-0.901 -0.15,-1.828 -0.1,-2.279 -0.149,-0.676 h -0.125 l -0.1,0.225 -0.075,0.451 -0.175,1.603 -0.1,1.377 -0.225,-0.251 -0.2,-0.45 -0.075,-0.226 h -0.099 l -0.1,0.226 -0.1,0.45 v 0.702 0.676 l 0.224,0.901 0.25,1.152 0.275,1.127 0.3,0.676 0.2,1.151 0.2,1.578 0.074,0.926 0.075,0.902 0.075,0.901 v 0.701 l -0.05,0.226 h -0.025 l -0.174,-0.451 -0.15,-0.476 -0.125,-0.45 -0.15,-0.677 -0.275,-0.45 h -0.275 l -0.225,0.225 -0.224,0.451 -0.175,0.901 -0.15,1.152 -0.1,1.578 -0.075,1.827 0.175,0.676 0.2,0.702 0.225,0.225 0.199,0.225 0.25,0.226 0.2,0.225 0.225,0.225 0.2,0.676 0.175,0.451 0.149,0.476 0.175,0.676 0.125,0.676 0.325,1.828 0.25,1.577 0.125,2.955 0.1,1.152 0.075,1.803 0.025,1.828 0.074,3.405 0.075,5.909 0.175,1.377 0.15,0.902 0.1,0.45 h 0.1 0.1 l 0.15,-0.225 0.3,-1.803 0.324,-2.278 0.125,-2.054 0.15,-2.503 V 59.819 58.442 L 0,57.765 0.075,57.315 0.175,57.089 0.325,56.614 0.4,56.388 0.425,55.938 0.35,54.36 0.225,53.208 0.05,51.856 -0.1,50.704 l -0.25,-0.225 -0.199,-0.225 -0.425,-3.18 -0.45,-2.955 -0.1,-1.152 -0.175,-1.352 -0.174,-1.377 -0.125,-0.676 -0.05,-0.676 v -0.451 l 0.424,1.352 0.475,2.053 0.05,0.676 0.075,0.451 0.1,0.476 0.125,0.451 0.25,0.45 0.199,0.451 0.125,0.901 0.1,0.476 0.45,0.902 0.449,1.352 0.25,0.476 0.25,0.45 h 0.225 l 0.225,-0.225 0.2,-1.377 0.149,-1.578 V 45.471 44.795 L 1.999,43.894 1.898,42.967 1.849,41.615 1.824,37.759 1.624,32.526 1.474,27.067 1.374,21.609 1.299,16.15 1.124,11.818 0.999,7.512 0.924,5.233 0.774,3.405 0.7,2.504 0.6,1.577 0.5,0.676 0.35,0 H 0.175 Z m -5.071,5.233 -0.15,0.676 -0.125,0.902 -0.125,1.152 -0.025,1.126 v 2.955 5.007 l 0.025,2.504 0.125,1.828 0.025,0.676 0.075,0.451 h 0.1 l 0.075,-0.225 0.1,-2.504 0.125,-2.279 0.15,-2.278 0.2,-2.029 V 10.691 L -4.546,8.188 -4.596,7.036 -4.721,6.135 -4.871,5.459 Z"/>
      </g>
    </g>
    <g transform="matrix(7.7490387,0,0,1.2879028,15.496811,557.54565)" id="g18">
      <g transform="translate(68.771,1.928)" id="g20">
        <path id="path22" style="fill:#da251d;fill-opacity:1;fill-rule:evenodd;stroke:none" d="M 0,0 -0.35,1.152 -0.7,2.504 -1.049,3.631 -1.399,5.008 -1.849,5.684 -2.323,6.61 -2.498,7.512 -2.723,8.188 V 8.864 9.34 l 0.075,0.45 0.1,0.226 h 0.075 0.1 l 0.249,-0.676 0.275,-0.476 0.275,-0.225 0.275,-0.226 0.3,-0.225 0.274,0.225 0.25,0.226 0.225,0.701 0.075,1.352 0.025,1.127 0.05,1.151 v 1.353 L 0,15.7 0.025,17.052 v 1.152 L 0,19.556 -0.15,19.781 h -0.1 l -0.1,-0.225 -0.1,-0.226 -0.375,-0.225 -0.399,-0.225 -0.275,0.901 -0.25,0.451 -0.025,0.926 v 0.451 0.451 l 0.025,0.45 0.15,0.451 0.2,0.251 0.45,1.577 0.524,1.377 0.525,1.127 0.524,0.676 0.45,1.377 0.425,1.127 0.449,0.926 0.45,0.902 0.25,0.451 0.275,0.225 h 0.249 0.275 l 0.1,-1.578 V 30.248 L 3.497,29.121 3.372,28.42 3.072,26.842 2.673,25.69 2.373,24.789 2.098,23.888 1.773,22.961 1.474,22.51 V 22.285 22.06 l -0.3,-0.676 -0.275,-0.226 h -0.1 l -0.1,-0.45 -0.1,-0.476 -0.1,-0.902 0.05,-3.63 0.05,-3.631 0.025,-3.656 V 4.557 L 0.699,3.405 V 2.729 L 0.674,1.828 0.549,1.152 0.424,0.676 0.275,0.451 0.15,0.225 Z m -4.397,20.006 -0.2,0.226 -0.249,0.701 -0.2,0.676 -0.175,0.901 -0.075,0.927 v 0.676 0.451 l 0.025,0.225 0.15,0.676 0.175,0.701 0.424,0.226 0.375,0.676 0.375,0.45 0.399,0.451 0.225,0.926 0.3,0.677 0.225,0.901 0.3,0.451 0.374,1.151 0.375,0.902 0.4,0.901 0.349,1.377 0.65,1.828 1.124,3.18 0.275,0.676 0.275,0.451 0.249,0.451 h 0.25 0.2 L 2.373,41.39 2.448,40.939 2.473,40.714 2.523,40.038 2.548,39.337 2.348,38.21 2.123,36.858 1.873,35.481 1.649,34.354 1.399,33.202 1.124,32.526 0.849,31.85 h -0.3 l -0.025,0.451 -0.025,1.352 0.275,1.152 0.4,2.053 v 0.451 L 1.149,37.534 H 1.024 0.899 l -0.624,-2.053 -0.6,-2.053 -0.574,-2.029 -0.525,-2.504 -0.325,-0.926 -0.3,-0.901 -0.324,-1.378 -0.275,-1.126 -0.325,-1.352 -0.275,-1.152 -0.299,-1.127 -0.325,-0.927 h -0.275 z m 1.999,19.331 -0.15,1.152 -0.075,1.126 v 1.378 1.577 l -0.05,0.927 -0.05,0.901 -0.025,0.901 0.025,0.927 0.15,0.225 0.075,-0.225 h 0.05 l 0.075,-0.476 0.1,-0.901 0.149,-1.127 h 0.175 0.175 0.1 l 0.075,0.225 0.025,0.451 0.05,0.676 v 1.152 l -0.05,1.127 0.05,0.901 v 0.927 l -0.15,2.278 -0.025,1.352 v 0.451 l 0.025,0.225 0.075,0.226 0.025,-0.226 0.15,-0.225 0.175,-0.676 0.125,-1.127 0.125,-1.152 L -0.7,50.955 -0.375,49.803 0,50.955 0.375,52.082 0.424,52.758 0.375,53.91 0,53.459 l -0.375,-0.701 -0.05,0.451 v 0.701 0.676 l 0.05,0.451 -0.15,0.45 -0.1,0.451 -0.025,0.701 v 0.676 l 0.05,0.226 0.05,0.45 0.35,0.226 0.275,0.225 0.25,0.701 0.199,0.676 0.2,0.902 0.225,1.151 0.175,1.578 0.175,1.602 0.2,1.578 0.199,1.602 0.125,0.902 0.125,0.45 0.15,0.476 H 2.223 L 2.348,69.359 2.373,68.458 V 67.782 L 2.348,66.855 2.223,65.503 2.023,64.126 1.823,62.774 1.599,61.397 1.524,60.721 1.499,60.044 1.474,59.368 v -0.701 l 0.175,-0.45 h 0.124 0.175 l 0.15,0.225 0.3,0.701 0.325,0.451 0.175,0.676 0.249,0.676 0.225,0.225 h 0.225 l 0.1,-0.225 0.1,-0.225 0.075,-0.451 0.025,-0.451 0.05,-0.451 V 58.667 57.991 L 3.872,57.09 3.772,56.414 3.697,55.713 H 3.672 3.622 L 3.447,53.684 3.247,51.406 2.997,49.353 2.723,47.299 2.573,46.623 2.448,45.722 2.273,45.046 2.098,44.57 1.923,44.119 1.748,43.894 H 1.524 l -0.2,0.225 v 0.676 l 0.025,0.476 0.125,0.226 0.05,0.45 0.349,2.955 0.325,2.729 0.15,0.226 0.175,0.45 0.125,0.676 0.175,0.927 0.1,0.901 0.099,0.902 0.075,1.151 0.05,0.902 -0.15,0.225 H 2.898 l -0.075,-0.45 -0.1,-0.451 -0.25,-0.226 -0.25,-0.45 -0.2,-0.476 -0.2,-0.901 L 1.399,53.459 0.974,51.406 0.849,50.254 0.774,49.353 0.699,48.677 v -0.676 l 0.025,-0.702 0.075,-0.676 0.1,-0.901 0.175,-0.927 V 44.119 L 1.049,43.443 0.899,43.218 H 0.774 l -0.15,0.225 h -0.1 L 0.25,43.894 H -0.025 L -0.2,42.993 -0.375,41.841 -0.475,41.39 -0.6,40.939 h -0.1 l -0.1,-0.225 v 0.901 0.702 l 0.075,0.676 0.025,0.45 v 0.676 0.927 l -0.1,0.225 h -0.074 -0.1 l -0.075,-0.225 -0.175,-0.701 -0.175,-1.127 -0.3,-2.053 -0.275,-1.828 h -0.224 z"/>
      </g>
    </g>
    <g transform="matrix(7.7490387,0,0,1.2879028,15.496811,557.54565)" id="g24">
      <g transform="translate(12.94,3.3052)" id="g26">
        <path id="path28" style="fill:#da251d;fill-opacity:1;fill-rule:evenodd;stroke:none" d="M 0,0 -0.075,0.451 -0.15,1.127 -0.175,1.803 -0.25,2.504 -0.35,2.729 -0.425,3.405 -0.5,3.856 -0.575,4.532 -0.75,4.983 -0.875,5.459 -0.924,6.135 -0.875,7.963 -0.6,7.262 -0.25,7.036 -0.175,7.712 -0.15,8.639 v 1.352 l 0.025,1.377 v 2.955 2.053 l 0.075,1.127 0.075,0.901 0.025,0.927 v 1.126 l -0.2,0.451 H -0.4 -0.525 l -0.075,0.225 -0.1,0.226 -0.075,0.701 v 1.577 1.603 l 0.2,2.278 0.175,2.029 h 0.125 0.125 l 0.075,-1.578 0.1,-2.954 0.15,0.225 0.175,0.451 0.174,0.901 0.2,1.152 0.175,1.127 0.15,1.151 0.05,1.127 v 0.676 l -0.05,0.226 H 0.974 0.899 L 0.874,31.825 0.724,31.375 0.549,31.149 v 0.451 0.676 l 0.2,0.926 0.25,1.127 0.35,1.377 0.624,2.254 0.175,0.476 0.15,0.225 0.125,0.225 h 0.15 l 0.1,-0.225 0.075,-0.451 0.025,-0.926 V 36.157 L 2.498,34.78 2.198,33.428 1.948,31.825 1.698,30.022 1.624,29.772 1.549,29.321 1.524,28.195 1.449,27.043 1.349,26.141 1.224,25.24 0.924,23.637 0.624,22.285 0.649,19.556 V 16.601 L 0.624,13.872 0.549,11.143 V 8.864 6.36 4.081 L 0.474,1.803 H 0.449 0.399 V 1.577 1.352 L 0.35,1.127 0.3,0.901 0.275,0.676 0.225,0.225 0.125,0 Z m -2.448,0.676 -0.1,1.352 -0.075,1.152 -0.025,0.901 -0.05,0.902 0.1,1.602 0.225,2.504 0.299,0.226 0.25,0.451 0.15,0.45 0.1,0.476 0.1,0.676 0.1,0.901 0.15,0.451 0.1,0.451 0.075,0.701 0.075,0.901 0.124,0.226 0.175,0.225 0.05,-0.451 0.025,-0.45 V 13.872 L -0.625,13.171 -0.7,12.044 -0.85,10.917 -1.149,8.639 -1.399,7.036 -1.549,5.684 -1.724,4.081 -1.899,2.729 -2.074,1.577 V 1.352 1.127 L -2.273,0.901 Z m 4.321,5.909 -0.1,0.677 -0.1,0.701 -0.049,0.676 -0.025,0.676 -0.05,1.828 -0.025,1.803 -0.075,1.151 v 0.902 l 0.05,0.676 0.025,0.225 0.199,0.476 h 0.325 l 0.1,-0.701 0.1,-0.902 0.075,-0.225 0.075,-0.901 0.075,-1.152 0.075,-0.676 V 10.692 L 2.498,9.766 2.473,8.864 2.398,8.188 2.298,7.712 2.198,7.262 2.048,6.811 Z m -3.547,24.339 -0.275,1.127 -0.299,0.701 -0.125,0.676 -0.075,0.676 -0.075,0.901 v 1.377 l 0.449,0.226 h 0.45 l 0.4,1.352 0.424,0.701 v 0.451 0.225 l 0.475,1.352 0.5,1.377 v 0.451 l 0.05,0.451 0.125,0.45 0.124,0.476 0.325,1.127 0.375,0.901 0.724,1.603 0.35,0.901 0.25,0.927 0.25,0.225 0.125,0.226 0.149,-0.226 0.1,-0.225 0.15,-0.476 V 47.976 47.074 L 3.047,46.624 2.873,46.148 2.723,45.246 2.573,44.12 2.473,43.894 2.373,43.669 V 43.418 43.193 L 1.798,41.841 1.349,41.165 1.324,40.464 v -0.451 l -0.25,-0.451 -0.2,-0.676 V 38.661 38.436 L 0.724,37.96 0.624,37.058 0.449,36.608 0.3,35.932 0.275,35.706 V 35.481 L -0.15,34.555 -0.575,33.653 v -0.225 -0.226 l -0.1,-0.225 -0.1,-0.225 V 32.501 32.276 H -0.8 -0.85 V 32.051 31.825 H -0.875 -0.924 L -0.949,31.6 v -0.451 h -0.35 z m 3.173,18.429 -0.05,0.901 v 0.902 1.151 0.902 l -0.275,1.602 -0.2,1.127 -0.1,0.676 -0.075,0.927 -0.05,0.901 v 1.352 l 0.25,1.152 0.275,0.901 0.175,-0.225 0.175,-0.451 0.224,-0.676 0.225,-0.926 0.175,-1.127 0.225,-0.901 0.125,-1.152 0.125,-0.902 V 54.336 52.984 L 2.398,51.606 2.148,50.48 1.973,50.029 1.848,49.804 1.673,49.353 Z"/>
      </g>
    </g>
    <g transform="matrix(7.7490387,0,0,1.2879028,15.496811,557.54565)" id="g30">
      <g transform="translate(27.603,3.3052)" id="g32">
        <path id="path34" style="fill:#da251d;fill-opacity:1;fill-rule:evenodd;stroke:none" d="M 0,0 -0.075,0.676 -0.1,1.352 v 0.676 0.701 l 0.075,1.352 0.1,1.378 0.3,2.729 0.3,2.254 0.275,2.504 0.249,2.729 0.125,1.377 0.15,1.127 0.1,0.45 0.1,0.476 0.1,0.226 0.1,0.225 0.075,-0.701 V 18.404 17.728 17.052 L 1.824,15.449 1.674,13.647 1.549,12.044 1.399,10.442 1.324,9.766 1.299,9.089 V 8.413 L 1.324,7.963 2.049,7.487 2.823,7.036 3.248,7.262 3.597,7.487 3.972,7.963 4.322,8.864 v 1.352 1.377 L 4.647,11.368 4.871,10.917 5.096,10.216 5.371,9.315 5.446,8.639 5.471,8.188 V 7.487 7.036 L 5.371,6.135 5.196,5.233 4.747,3.631 4.397,2.955 h -0.8 L 2.798,3.18 2.373,3.631 1.999,4.081 1.649,5.233 1.299,6.585 1.199,6.36 1.074,6.135 0.9,4.081 0.675,2.028 0.525,1.352 0.35,0.676 0.2,0.225 Z m 3.348,9.315 -0.25,0.676 -0.175,0.701 -0.125,0.901 -0.1,1.127 -0.075,1.152 v 1.352 l -0.05,1.603 v 1.802 l 0.15,0.702 0.15,0.676 0.05,1.126 0.075,0.927 -0.3,0.225 -0.3,0.226 -0.05,0.45 -0.05,1.352 -0.349,2.279 -0.2,0.926 -0.075,0.677 -0.025,0.676 v 1.602 l -0.05,2.028 0.1,1.603 0.125,1.127 0.05,1.377 0.05,1.127 v 1.377 1.126 l -0.075,1.378 -0.075,1.577 v 0.927 1.126 h 0.1 l 0.075,0.226 v 0.676 0.476 l 0.524,1.577 0.45,1.603 0.45,1.577 0.499,1.603 0.175,0.225 0.2,0.225 0.175,0.226 h 0.175 l 0.174,-0.451 0.175,-0.451 0.1,-0.926 0.125,-1.127 H 5.196 5.221 L 5.296,48.426 5.396,46.148 5.346,44.345 5.271,42.517 5.196,40.464 5.121,38.661 H 5.096 5.046 L 4.946,36.382 4.771,33.878 4.597,31.6 4.472,29.321 4.422,27.744 4.372,26.141 4.247,25.015 4.147,23.637 4.072,22.06 4.022,20.457 3.947,19.105 3.797,17.953 3.722,17.277 3.672,16.827 3.547,16.601 3.423,16.376 3.323,15.675 3.198,14.999 h 0.25 l 0.274,0.45 0.25,0.702 0.225,0.676 0.45,1.802 0.399,2.279 h 0.15 0.175 l 0.025,0.451 0.075,0.225 0.1,0.251 0.125,0.225 0.2,-0.225 h 0.199 l 0.25,-1.152 0.2,-1.352 L 6.62,18.629 6.695,17.953 6.72,16.827 6.77,15.9 6.67,15.224 6.52,14.773 l -0.1,-0.225 -0.1,0.225 -0.275,0.451 -0.224,0.927 -0.075,1.577 -0.025,0.901 -0.025,0.476 -0.05,0.226 -0.1,0.45 L 5.371,20.007 5.096,17.503 4.747,15.224 4.397,13.171 4.072,10.692 3.897,9.991 3.722,9.766 3.547,9.54 Z M 0.5,18.179 0.45,18.629 0.425,19.331 v 0.676 0.901 l 0.025,1.828 0.075,1.828 0.175,3.631 0.15,2.503 0.05,2.73 0.124,2.729 h 0.1 0.125 v -2.955 l 0.05,-3.18 V 25.916 L 1.249,22.285 1.224,21.584 1.199,20.908 1.124,20.232 1.049,19.556 0.95,19.105 0.8,18.855 0.675,18.404 Z m 2.598,7.286 -0.225,1.352 -0.325,1.378 -0.15,0.901 -0.1,0.676 -0.099,0.926 v 1.127 l 0.099,1.152 0.075,1.127 0.075,0.901 0.075,1.152 v 1.352 1.152 l -0.05,1.127 -0.025,1.377 -0.175,1.803 -0.149,1.828 h 0.274 l 0.3,0.225 0.275,0.451 0.275,0.676 0.2,0.926 0.324,1.352 0.175,0.451 0.125,0.476 0.175,0.225 h 0.15 L 4.122,43.669 3.772,37.735 3.448,31.825 3.198,25.691 H 3.148 Z M 1.849,49.578 1.824,49.804 h -0.05 v 0.901 l 0.075,0.676 0.025,0.451 0.075,0.475 0.15,0.902 0.125,1.127 0.299,2.053 0.225,1.828 0.3,1.803 0.275,2.053 0.1,1.377 0.074,0.676 0.05,0.451 h 0.05 l 0.1,0.225 h 0.1 l 0.15,-1.803 0.025,-1.828 V 59.344 L 3.947,57.541 3.497,55.713 2.998,53.885 2.748,52.984 2.548,52.082 2.348,51.156 2.124,50.029 1.999,49.804 Z"/>
      </g>
    </g>
    <g transform="matrix(7.7490387,0,0,1.2879028,15.496811,557.54565)" id="g36">
      <g transform="translate(56.181,11.017)" id="g38">
        <path id="path40" style="fill:#da251d;fill-opacity:1;fill-rule:evenodd;stroke:none" d="m 0,0 -0.1,0.476 -0.1,0.676 -0.025,0.225 -0.05,0.451 0.05,0.451 L -0.2,2.73 H 0 l 0.25,0.25 0.349,2.028 0.325,2.279 0.175,0.45 0.1,0.702 0.025,0.901 0.05,1.127 0.275,2.053 0.224,2.279 0.15,0.901 0.1,0.676 0.05,0.701 -0.05,0.226 -0.025,0.225 -0.15,0.225 -0.125,-0.225 -0.174,-0.225 -0.35,-0.702 -0.575,-0.45 -0.225,0.225 -0.174,0.225 -0.05,0.251 -0.025,0.451 0.025,0.45 0.075,0.451 0.249,0.676 0.275,0.225 0.275,0.226 0.25,0.475 0.524,0.902 0.525,1.127 0.125,0.926 0.125,1.127 0.1,1.377 0.075,1.127 0.174,2.729 0.2,2.504 0.025,1.603 0.05,1.352 0.1,1.602 0.1,1.127 0.025,1.828 -0.05,1.577 -0.175,1.152 -0.075,1.352 -0.1,1.603 -0.1,1.352 v 0.676 0.701 l 0.05,0.225 0.125,0.226 h 0.05 l 0.1,-0.226 0.175,-0.676 0.175,-0.926 0.325,-2.053 0.249,-1.803 0.075,-1.603 0.05,-1.352 V 38.21 l -0.1,-1.577 -0.124,-2.504 -0.125,-2.053 -0.1,-1.352 -0.1,-1.378 -0.075,-1.352 v -1.602 l 0.175,-0.226 h 0.1 l 0.075,0.226 0.05,0.676 0.049,1.377 0.15,1.127 h 0.2 l 0.15,-0.451 0.1,-0.451 0.025,-0.901 V 26.843 L 4.721,25.941 4.646,25.04 4.546,23.888 3.947,22.06 3.572,20.708 3.397,19.581 3.222,18.429 3.072,17.303 2.972,15.925 2.698,13.647 2.448,11.393 H 2.423 L 2.373,11.143 1.898,7.512 1.324,3.881 1.049,2.504 0.749,1.152 0.574,0.701 0.399,0.251 0.225,0 Z m 4.022,5.935 -0.1,0.45 -0.05,0.451 -0.025,0.676 -0.05,0.676 0.125,0.476 0.1,0.225 v 0.676 l 0.025,0.451 -0.125,1.127 -0.125,0.701 -0.05,0.901 v 1.127 h 0.275 l 0.249,-0.451 0.225,-0.676 0.225,-0.901 0.05,-1.828 V 8.439 L 4.746,7.737 4.671,7.061 4.571,6.611 4.471,6.16 h -0.25 z"/>
      </g>
    </g>
    <g transform="matrix(7.7490387,0,0,1.2879028,15.496811,557.54565)" id="g42">
      <g transform="translate(18.935,4.6573)" id="g44">
        <path id="path46" style="fill:#da251d;fill-opacity:1;fill-rule:evenodd;stroke:none" d="m 0,0 -0.125,0.676 -0.05,0.701 -0.05,0.902 V 3.18 l 0.1,0.225 L 0,3.631 0.025,7.287 0.1,11.143 l 0.1,3.656 0.15,3.405 0.025,2.504 0.025,2.253 0.125,2.279 0.05,2.279 v 2.053 2.053 l 0.075,2.028 0.099,1.603 H 0.924 1.099 L 1.224,32.977 1.249,30.473 V 27.744 25.24 L 1.149,23.437 1.074,21.609 1.049,19.556 0.999,17.753 V 13.647 L 0.974,9.791 0.924,7.963 0.899,5.91 0.874,4.106 0.799,2.279 0.725,2.053 0.65,1.828 0.575,1.152 0.525,0.676 0.225,0.225 Z M 2.298,3.631 2.198,4.106 2.073,4.557 2.023,5.233 1.949,6.135 1.899,7.061 v 0.902 0.901 0.701 l 0.149,0.676 0.15,0.451 0.1,0.225 h 0.1 L 2.473,10.692 2.573,10.016 2.648,9.34 2.748,8.414 2.723,6.611 2.673,4.557 2.548,4.106 Z M 4.172,5.459 3.922,6.135 3.822,6.611 3.797,7.512 V 8.414 9.34 l 0.025,0.901 0.075,1.828 0.15,1.803 L 3.922,13.647 3.447,12.52 3.098,12.745 h -0.35 l -0.025,0.902 -0.05,0.901 0.175,1.152 0.25,0.901 0.249,0.902 0.225,0.701 0.25,0.901 0.25,0.676 0.175,1.152 0.125,1.352 h 0.349 l 0.4,-0.225 0.125,-0.451 0.15,-0.45 0.025,-0.451 V 20.232 19.556 18.88 l -0.2,-1.377 -0.15,-0.902 V 16.376 16.151 L 5.021,15.925 4.946,15.475 4.896,15.024 4.846,14.548 4.796,13.196 4.771,12.069 5.196,11.594 5.571,11.143 5.596,10.241 V 9.34 L 5.571,8.639 5.546,8.188 5.371,7.287 5.146,6.611 4.621,5.91 Z m -0.775,16.15 -0.224,0.676 -0.175,0.676 -0.05,0.476 -0.025,0.676 v 0.676 l 0.025,0.902 0.1,0.701 0.15,0.225 0.174,0.226 0.175,0.225 0.175,0.676 0.175,0.451 0.175,0.475 0.175,0.451 0.175,0.225 0.199,-0.225 0.075,-0.701 V 27.744 27.068 L 4.671,26.617 4.522,25.24 4.322,24.339 4.072,23.437 3.822,22.511 3.572,22.06 Z m 0.075,7.737 -0.175,0.677 -0.124,0.676 -0.05,0.45 -0.025,0.476 -0.05,0.676 v 0.676 l 0.175,0.676 0.224,0.226 0.35,1.151 0.3,0.676 0.35,0.677 0.349,0.475 0.075,-0.701 0.025,-0.451 0.05,-0.676 V 34.129 L 4.871,33.879 4.796,33.653 4.696,32.752 4.547,31.85 4.422,31.149 l -0.2,-0.45 -0.4,-0.902 z m -1.274,6.811 -0.05,0.226 -0.025,0.225 v 1.377 l 0.075,0.901 0.1,0.702 0.1,0.45 0.15,0.226 0.175,0.45 0.125,0.451 0.15,0.901 0.299,0.702 0.35,0.901 0.325,1.127 0.3,0.926 0.324,0.902 0.3,0.45 0.175,0.226 H 5.246 L 5.471,47.074 5.646,46.849 5.771,45.497 5.995,44.345 H 6.02 L 6.045,44.12 V 43.218 42.066 L 5.82,41.616 5.596,41.165 V 40.94 40.714 L 5.471,40.489 H 5.246 L 4.846,40.264 4.072,39.813 3.572,38.661 3.123,37.76 2.673,36.858 Z m -1.973,1.828 -0.05,0.451 -0.05,0.45 v 0.451 0.476 l 0.05,0.901 0.05,1.127 0.25,1.828 0.175,1.603 0.324,1.802 0.25,2.054 0.15,2.053 0.175,2.504 0.175,0.225 h 0.125 0.125 l 0.174,-0.225 0.05,-0.927 0.025,-1.126 V 50.48 L 2.198,49.578 2.073,47.525 1.899,45.497 H 1.874 1.849 L 1.799,45.272 V 45.021 H 1.774 1.724 L 1.674,44.345 1.524,43.669 1.349,42.993 1.224,42.768 0.999,40.714 0.824,39.337 0.7,38.886 0.575,38.436 0.4,37.985 Z m 4.821,13.647 -0.15,0.676 -0.1,0.676 -0.025,0.701 -0.05,1.127 -0.174,0.45 -0.125,0.927 v 0.901 0.902 l 0.025,0.676 0.1,0.701 0.474,0.225 0.475,-0.225 0.225,-0.226 0.149,-0.701 0.075,-0.676 0.05,-0.451 0.025,-0.901 V 55.713 L 5.945,54.812 5.845,54.135 5.746,53.459 5.596,52.984 5.321,52.082 Z"/>
      </g>
    </g>
    <g transform="matrix(7.7490387,0,0,1.2879028,15.496811,557.54565)" id="g48">
      <g transform="translate(45.664,6.4852)" id="g50">
        <path id="path52" style="fill:#da251d;fill-opacity:1;fill-rule:evenodd;stroke:none" d="m 0,0 -0.15,0.676 -0.1,0.676 -0.075,0.701 -0.025,0.676 -0.025,0.676 v 0.677 0.45 l 0.025,0.701 0.15,1.127 0.175,1.152 0.175,1.352 0.2,1.377 0.075,0.451 0.1,0.676 0.1,0.676 0.149,0.676 0.275,1.152 0.25,1.127 0.1,0.926 0.1,1.127 v 2.053 2.028 2.054 l 0.025,2.053 -0.05,0.225 H 1.399 L 1.249,25.24 1.149,25.015 0.949,24.338 0.774,23.637 H 0.425 L 0.175,23.863 0.1,24.338 0.025,24.789 0,25.691 l -0.025,1.377 0.2,1.127 0.175,1.377 0.175,1.352 0.1,1.602 0.349,2.955 0.325,2.504 0.175,1.352 0.2,1.152 0.2,1.127 0.249,0.901 0.25,1.828 0.25,2.053 0.225,2.028 0.175,2.054 0.175,1.151 0.224,1.353 0.175,-0.226 0.1,-0.451 0.1,-0.45 L 3.822,50.93 3.897,49.127 3.872,47.074 3.422,44.796 2.923,42.517 2.673,41.616 2.448,40.714 2.223,39.337 1.973,38.21 1.574,35.481 1.149,32.752 1.174,31.825 1.224,31.149 h 0.125 0.15 l 0.175,0.902 0.125,1.151 0.149,1.127 0.15,1.152 0.125,1.127 0.175,0.901 0.175,0.476 0.225,0.225 0.125,-0.701 0.075,-0.676 0.075,-0.901 0.025,-0.676 -0.025,-0.927 V 33.653 L 2.998,32.977 2.923,32.301 2.548,29.321 2.123,26.842 l -0.1,-3.205 -0.075,-3.18 0.1,-0.676 0.075,-0.901 0.1,0.225 h 0.15 l 0.1,0.451 0.1,0.451 0.175,1.126 0.175,1.378 0.324,2.954 0.225,2.73 0.125,0.225 h 0.225 l 0.075,-0.451 0.075,-1.377 h 0.2 l 0.225,0.476 0.174,0.676 0.175,0.676 v 0.225 l 0.025,0.226 0.275,0.701 0.275,0.901 0.3,0.451 h 0.274 l 0.1,-1.352 0.175,-1.377 V 27.068 25.916 L 6.07,24.789 5.995,23.863 V 23.187 22.511 L 6.145,20.908 6.295,19.105 6.245,17.953 6.17,16.601 5.995,15.224 5.82,13.647 5.471,10.917 5.146,8.864 V 8.413 7.737 L 5.271,7.262 5.396,7.036 h 0.15 L 5.671,7.262 5.995,7.963 6.27,8.413 H 6.895 L 7.044,8.188 V 7.036 6.135 L 6.87,5.233 6.695,4.532 6.47,4.307 H 6.245 L 5.895,3.631 5.496,3.18 5.096,2.955 4.696,3.18 4.496,4.307 4.297,5.233 v 2.279 l 0.025,0.901 0.1,0.226 0.074,0.45 0.075,0.677 0.075,0.701 0.05,1.577 0.05,1.377 0.1,0.676 0.125,0.902 0.05,0.45 0.025,0.476 v 0.451 0.451 l -0.1,0.45 -0.075,0.676 v 0.451 0.251 l 0.075,0.901 0.175,0.901 0.075,1.378 0.125,1.577 0.05,0.701 v 0.902 0.676 l -0.05,0.676 -0.2,-0.226 -0.175,-0.45 -0.15,-0.902 -0.15,-0.676 -0.15,-0.701 -0.149,-0.225 -0.1,-0.226 -0.1,0.226 -0.1,0.225 -0.1,0.225 H 3.697 L 3.447,23.187 3.173,20.908 2.898,18.404 2.573,16.151 2.273,14.097 2.198,13.196 2.098,12.269 V 9.766 L 2.048,8.188 1.948,6.586 1.749,4.783 H 1.474 L 1.299,5.233 H 1.174 L 1.124,5.008 0.974,4.783 0.824,4.307 0.625,3.18 0.45,1.803 0.25,0.676 Z m 5.296,36.157 -0.275,1.127 -0.175,0.701 -0.05,0.451 -0.025,0.676 -0.025,0.901 v 1.152 l 0.025,1.127 0.075,1.152 0.175,0.225 h 0.175 l 0.1,-0.701 0.075,-0.226 0.1,-0.225 h 0.1 l 0.224,0.225 0.175,0.702 0.325,2.028 0.325,1.828 v 1.827 l -0.025,1.578 0.1,0.676 0.175,0.701 0.174,0.451 0.175,0.225 0.175,-0.225 0.175,-0.226 0.075,-0.45 L 7.669,51.631 7.744,50.93 7.769,50.48 7.644,49.578 7.494,48.652 7.319,47.976 7.169,47.3 6.995,46.173 6.82,45.021 6.62,43.894 6.42,42.968 V 42.066 L 6.445,41.39 6.47,40.714 6.595,40.013 6.545,39.337 V 38.661 L 6.47,38.21 6.445,37.76 6.27,37.058 6.095,36.608 5.671,36.157 Z"/>
      </g>
    </g>
    <g transform="matrix(7.7490387,0,0,1.2879028,15.496811,557.54565)" id="g54">
      <g transform="translate(38.17,12.62)" id="g56">
        <path id="path58" style="fill:#da251d;fill-opacity:1;fill-rule:evenodd;stroke:none" d="M 0,0 -0.175,0.225 -0.35,0.451 -0.525,0.901 -0.7,1.377 -1.024,2.729 -1.299,4.106 v 0.676 l -0.025,0.676 0.1,0.226 0.15,0.225 0.125,0.225 h 0.15 0.299 0.3 L 0.175,7.061 0.599,7.962 0.974,8.638 1.349,9.79 v 0.226 0.225 h 0.05 0.025 l 0.05,0.676 0.025,0.676 0.075,0.451 0.1,0.476 0.025,1.352 0.1,1.377 0.124,1.352 0.1,1.377 0.3,2.729 0.3,2.029 0.1,2.504 0.1,2.503 H 2.298 l -0.425,0.226 -0.174,0.451 -0.2,0.475 -0.2,0.676 -0.225,1.127 v 0.676 L 1.049,31.85 h 0.3 0.325 0.299 0.325 l 0.5,0.676 0.499,0.676 0.075,0.451 0.1,0.45 0.125,0.251 h 0.1 0.25 0.225 L 4.322,33.427 4.421,32.526 4.496,31.85 4.521,30.923 V 30.247 L 4.471,29.346 4.347,28.42 4.222,27.518 4.047,25.916 3.822,24.563 3.622,23.186 3.372,21.834 v -0.225 -0.226 l -0.175,-0.45 -0.124,-0.927 -0.1,-0.901 -0.125,-0.902 -0.475,-3.43 -0.525,-2.955 0.075,-0.676 0.05,-0.676 0.25,0.226 0.275,0.676 0.25,0.901 0.25,0.701 0.274,0.676 0.275,0.451 0.4,-0.451 0.3,-0.45 0.1,-0.451 0.124,-0.701 0.05,-0.902 L 4.596,10.016 4.471,8.413 4.322,7.061 3.897,5.909 3.447,5.233 3.197,5.008 2.998,4.557 2.748,3.856 2.548,3.18 2.398,2.954 2.223,2.729 2.123,2.278 1.973,1.602 H 1.699 L 1.474,1.377 1.249,0.901 0.999,0 H 0.475 Z"/>
      </g>
    </g>
  </g>
</svg>